<?xml version="1.0" encoding="UTF-8"?>
<!DOCTYPE svg PUBLIC "-//W3C//DTD SVG 1.1//EN" "http://www.w3.org/Graphics/SVG/1.1/DTD/svg11.dtd">
<!-- Creator: CorelDRAW 2018 (64 Bit) -->
<svg xmlns="http://www.w3.org/2000/svg" xml:space="preserve" width="210mm" height="297mm" version="1.1" style="shape-rendering:geometricPrecision; text-rendering:geometricPrecision; image-rendering:optimizeQuality; fill-rule:evenodd; clip-rule:evenodd"
viewBox="0 0 21000 29700"
 xmlns:xlink="http://www.w3.org/1999/xlink">
 <defs>
  <style type="text/css">
   <![CDATA[
    .fil0 {fill:#052C65}
    .fil1 {fill:#3B8AFD}
   ]]>
  </style>
 </defs>
 <g id="Camada_x0020_1">
  <metadata id="CorelCorpID_0Corel-Layer"/>
  <g id="_1890554845440">
   <path class="fil0" d="M10520.01 9035.71l4324.73 9770.34 -1640.81 -5.53 -676.55 -1765.4c-119.81,-307.82 -94.78,-340.57 -317.11,-423.6l-3420.54 0c-226.04,82.98 -217.69,162.21 -339.53,484.42l-654.13 1708.15 -1662.76 -8.47 4386.7 -9759.91zm-6999.63 783.94c143.24,2355.48 654.44,5628.01 936.29,8189 72.58,659.45 -57.21,979.9 477.64,1276.34l4623.73 2552.57c848.05,501.46 851.76,568.46 1179.59,392.51l3433.78 -1913.16c377.98,-197.44 2008.11,-1042.52 2253.28,-1295.04l1054.93 -9202.22c-1109.8,-285.54 -6513.36,-2459.73 -7009.51,-2437.57 -435.12,19.44 -5750.16,2128.78 -6949.73,2437.57z"/>
   <path class="fil1" d="M10427.61 12392.37c64.44,-108.02 57.75,-92.87 98.29,-147.64l1183.82 3004.61 -2443.84 2.91 1161.73 -2859.88zm-4294.3 6403.25l1662.76 8.47 654.13 -1708.15c121.84,-322.21 113.49,-401.44 339.53,-484.42l3420.54 0c222.33,83.03 197.3,115.78 317.11,423.6l676.55 1765.4 1640.81 5.53 -4324.73 -9770.34 -4386.7 9759.91z"/>
   <path class="fil0" d="M9265.88 15252.25l2443.84 -2.91 -1183.82 -3004.61c-40.54,54.77 -33.85,39.62 -98.29,147.64l-1161.73 2859.88z"/>
  </g>
 </g>
</svg>
