<?xml version="1.0" encoding="UTF-8"?>
<!DOCTYPE svg PUBLIC "-//W3C//DTD SVG 1.1//EN" "http://www.w3.org/Graphics/SVG/1.1/DTD/svg11.dtd">
<!-- Creator: CorelDRAW 2018 (64 Bit) -->
<svg xmlns="http://www.w3.org/2000/svg" xml:space="preserve" width="210mm" height="297mm" version="1.1" style="shape-rendering:geometricPrecision; text-rendering:geometricPrecision; image-rendering:optimizeQuality; fill-rule:evenodd; clip-rule:evenodd"
viewBox="0 0 21000 29700"
 xmlns:xlink="http://www.w3.org/1999/xlink">
 <defs>
  <style type="text/css">
   <![CDATA[
    .str0 {stroke:white;stroke-width:26.46;stroke-miterlimit:22.9256}
    .fil1 {fill:#052C65}
    .fil0 {fill:#3B8AFD}
   ]]>
  </style>
 </defs>
 <g id="Camada_x0020_1">
  <metadata id="CorelCorpID_0Corel-Layer"/>
  <g id="_1890309060096">
   <polygon class="fil0 str0" points="7728.63,11086.81 10091.59,9073.86 16247.07,14908.45 12512.9,19342.71 10266.6,20947.25 7057.59,16921.41 7582.75,11086.81 "/>
   <rect class="fil0" transform="matrix(5.34531 5.29945 -5.29945 5.3453 8737.51 8725.29)" width="201.54" height="240.3"/>
   <path class="fil1" d="M17686.54 14184.57l-6521.51 -6520.98c-375.3,-375.6 -984.47,-375.6 -1360.22,0l-1354.19 1354.19 1717.83 1717.82c399.23,-134.88 856.95,-44.41 1175.19,273.91 319.75,320.2 409.55,781.84 271.43,1182.43l1655.57 1655.57c400.52,-138.05 862.68,-48.7 1182.58,271.73 447.11,446.88 447.11,1171.28 0,1618.46 -447.18,447.26 -1171.59,447.26 -1618.99,0 -336.31,-336.61 -419.41,-830.53 -249.15,-1244.82l-1543.95 -1543.95 -0.15 4063.03c108.99,54.04 211.89,126 302.66,216.47 447.11,446.96 447.11,1171.29 0,1618.85 -447.18,447.1 -1171.88,447.1 -1618.46,0 -447.11,-447.56 -447.11,-1171.89 0,-1618.85 110.42,-110.27 238.23,-193.74 374.62,-249.74l0 -4100.89c-136.39,-55.78 -264.05,-138.65 -374.62,-249.82 -338.8,-338.27 -420.24,-835.28 -246.66,-1251.22l-1693.29 -1693.59 -4471.59 4471.29c-375.83,375.9 -375.83,985.07 0,1360.74l6521.43 6521.14c375.53,375.67 984.54,375.67 1360.44,0l6491.03 -6490.88c375.6,-375.75 375.6,-985.21 0,-1360.89z"/>
  </g>
 </g>
</svg>
