<?xml version="1.0" encoding="UTF-8"?>
<!DOCTYPE svg PUBLIC "-//W3C//DTD SVG 1.1//EN" "http://www.w3.org/Graphics/SVG/1.1/DTD/svg11.dtd">
<!-- Creator: CorelDRAW 2018 (64 Bit) -->
<svg xmlns="http://www.w3.org/2000/svg" xml:space="preserve" width="210mm" height="297mm" version="1.1" style="shape-rendering:geometricPrecision; text-rendering:geometricPrecision; image-rendering:optimizeQuality; fill-rule:evenodd; clip-rule:evenodd"
viewBox="0 0 21000 29700"
 xmlns:xlink="http://www.w3.org/1999/xlink">
 <defs>
  <style type="text/css">
   <![CDATA[
    .fil0 {fill:#052C65}
    .fil1 {fill:#3B8AFD}
   ]]>
  </style>
 </defs>
 <g id="Camada_x0020_1">
  <metadata id="CorelCorpID_0Corel-Layer"/>
  <g id="_1890555650464">
   <path class="fil0" d="M4691.5 22318.1l11616.99 0c916.55,0 1659.61,-743.05 1659.61,-1659.6l0 -11616.99c0,-916.55 -743.06,-1659.61 -1659.61,-1659.61l-11616.99 0c-916.55,0 -1659.6,743.06 -1659.6,1659.61l0 11616.99c0,916.55 743.05,1659.6 1659.6,1659.6z"/>
   <path class="fil1" d="M10499.7 10078.71c-2749.2,0 -4978.44,2237.82 -4978.44,4998.83 0,2208.09 1426.42,4081.53 3405.17,4742.62 248.91,45.91 339.76,-108.47 339.76,-240.94 0,-118.7 -4.37,-432.95 -6.85,-850.01 -1385.02,302.05 -1677.21,-670.12 -1677.21,-670.12 -226.19,-577.31 -552.63,-731.01 -552.63,-731.01 -452.14,-310.26 34.25,-303.94 34.25,-303.94 499.41,35.23 762.32,515.14 762.32,515.14 444.39,763.83 1165.39,543.22 1449.15,415.19 45.16,-323.06 173.95,-543.29 316.13,-668.24 -1105.55,-126.23 -2267.77,-554.88 -2267.77,-2470.17 0,-545.78 193.81,-991.9 512.5,-1341.45 -51.33,-126.6 -222.19,-634.51 48.55,-1322.77 0,0 418.19,-134.28 1369.14,512.36 397.35,-110.88 823.07,-166.2 1246.53,-168.38 422.86,2.18 848.88,57.5 1246.53,168.38 950.34,-646.64 1367.63,-512.36 1367.63,-512.36 271.65,688.26 100.79,1196.17 49.45,1322.77 319.29,349.55 511.91,795.67 511.91,1341.45 0,1920.03 -1164.11,2342.66 -2273.12,2466.41 178.61,154.3 337.95,459.21 337.95,925.65 0,668.24 -6.24,1207.09 -6.24,1371.1 0,133.75 89.64,289.33 342.32,240.26 1976.79,-662.29 3402,-2534.53 3402,-4741.94 0,-2761.01 -2229.24,-4998.83 -4979.03,-4998.83z"/>
  </g>
 </g>
</svg>
