<?xml version="1.0" encoding="UTF-8"?>
<!DOCTYPE svg PUBLIC "-//W3C//DTD SVG 1.1//EN" "http://www.w3.org/Graphics/SVG/1.1/DTD/svg11.dtd">
<!-- Creator: CorelDRAW 2018 (64 Bit) -->
<svg xmlns="http://www.w3.org/2000/svg" xml:space="preserve" width="210mm" height="297mm" version="1.1" style="shape-rendering:geometricPrecision; text-rendering:geometricPrecision; image-rendering:optimizeQuality; fill-rule:evenodd; clip-rule:evenodd"
viewBox="0 0 21000 29700"
 xmlns:xlink="http://www.w3.org/1999/xlink">
 <defs>
  <style type="text/css">
   <![CDATA[
    .fil2 {fill:none}
    .fil1 {fill:#052C65}
    .fil0 {fill:#3B8AFD}
   ]]>
  </style>
    <clipPath id="id0">
     <path d="M3910.92 22317.6l13049.16 0 0 -14935.2 -13049.16 0 0 14935.2z"/>
    </clipPath>
 </defs>
 <g id="Camada_x0020_1">
  <metadata id="CorelCorpID_0Corel-Layer"/>
  <g id="_1890415455008">
   <circle class="fil0" cx="10500" cy="14850" r="7467.6"/>
   <path class="fil1" d="M17967.6 14850c0,4124.29 -3343.31,7467.6 -7467.6,7467.6 -4124.29,0 -7467.6,-3343.31 -7467.6,-7467.6 0,-4124.29 3343.31,-7467.6 7467.6,-7467.6 4124.29,0 7467.6,3343.31 7467.6,7467.6zm-13515.11 0c0,3339.99 2707.52,6047.51 6047.51,6047.51 3339.99,0 6047.51,-2707.52 6047.51,-6047.51 0,-3339.99 -2707.52,-6047.51 -6047.51,-6047.51 -3339.99,0 -6047.51,2707.52 -6047.51,6047.51z"/>
   <g>
   </g>
   <g style="clip-path:url(#id0)">
    <g id="_1890415453184">
     <path class="fil1" d="M7920.98 16508.08c-237,148.26 -594.12,388.42 -870.38,649.57 -453.58,428.34 -548.46,1022.46 -309.22,1161.26 221.31,128.34 738.06,-24.32 1107.88,-427.68 388.08,-423.53 548.13,-960.37 382.85,-1569.84 -19.42,11.62 -38.52,23.24 -57.2,34.03l0.42 0.83 -25.07 14.2c-96.54,57.61 -175.4,105.09 -229.28,137.63zm6660.81 -192.25c-134.23,291.78 -141.04,385.67 -100.2,414.89 194.83,-69.98 517.08,-238.66 519.66,-690.66 0.41,-67.74 -14.53,-140.37 -38.52,-216.25 -208.28,184.46 -328.31,377.54 -380.94,492.02zm2090.41 -882.17c-520.41,-60.68 -926.58,12.28 -1241.7,143.61 58.36,151.91 103.19,310.13 109.49,469.51 14.7,349.82 -226.12,608.73 -477.07,793.6 -146.59,107.75 -302.49,179.56 -433.4,222.89 -104.6,44.16 -243.73,89.82 -342.43,69.64 -217.74,-44.24 -333.54,-237.58 -185.53,-664.09 80.03,-230.78 310.72,-582.17 683.11,-884.74 -84.84,-174.74 -179.47,-352.81 -227.62,-516.42 -95.05,-322.42 -123.77,-517.33 -123.77,-517.33 0,0 -306.98,636.37 -702.95,1215.13 -22.83,33.62 -45.65,66.66 -68.48,99.53 77.78,180.72 139.04,371.89 147.34,564.65 14.61,349.73 -136.8,614.2 -388.16,798.66 -136.06,100.27 -281.16,169.59 -405.68,213.67 -79.61,34.78 -241.57,91.98 -471.84,107.33 -126.01,8.64 -247.13,0.83 -314.78,-50.38 -93.14,-70.4 -104.35,-157.23 -56.12,-275.85 40.76,-100.61 345.83,-448.93 601.67,-753.84 70.64,-84.17 137.88,-170.25 198.07,-249.95l-1.41 -3.4c0,0.08 46.32,-59.77 121.53,-164.2 -93.56,-201.22 -212.02,-410.82 -267.72,-600.84 -95.05,-322.42 -123.77,-517.41 -123.77,-517.41 0,0 -311.13,797.66 -635.29,1434.45 -250.86,493.17 -418.38,792.01 -493.92,922.92l-0.75 5.32c0,0 -11.29,19.09 -30.71,48.97l-14.53 24.33 -0.41 -2.25c-84.1,124.27 -272.95,367.75 -460.64,367.75 -515.25,0 -326.07,-1046.45 -326.07,-1046.45 0,0 -150.58,387.66 -320.43,720.21 -138.29,271.28 -264.31,501.06 -539.82,501.06 -79.28,0 -204.96,-2.32 -309.31,-101.52 -236.66,-224.88 -417.63,-795.76 -382.1,-1237.96 30.3,-376.05 88.24,-636.45 167.52,-853.7 -141.37,77.04 -304.74,168.35 -471.1,265.97l-255.84 150.75 8.3 15.03c211.6,409.25 268.05,1306.03 -193.33,1994.45 -461.39,688.75 -1320.23,1107.79 -2157.07,875.11 -269.96,-75.21 -677.88,-633.8 -326.07,-1412.37 310.38,-686.59 1550.58,-1335.66 1877.4,-1497.62l89.73 -49.39c-651.64,-570.21 -2278.93,-1339.4 -2506.96,-2520.91 -64.34,-332.63 91.64,-1128.05 1068.2,-2042.43 821.4,-768.77 1964.15,-1357.66 3019.64,-1732.96 1773.39,-630.39 3647.14,-258.5 3935.36,872.13 283.4,1111.94 -681.2,2441.96 -1916.58,2920.11 -1103.07,426.85 -2015.04,359.11 -2389.67,236.09 -425.86,-139.88 -675.64,-420.87 -736.57,-579.59 -23.99,-62.1 -65.16,-166.36 0,-202.3 39.93,-22.08 56.03,-16.86 162.95,101.35 101.78,112.24 510.78,413.49 1287.77,326.24 2038.94,-228.53 3267.11,-1813.81 2879.02,-2666.84 -271.78,-597.11 -1843.28,-866.48 -3806.68,112.64 -2396.72,1194.96 -2526.8,2180.07 -2547.39,2554.2 -56.12,1029.19 1269.34,1570.59 1986.56,2336.04l27.64 30.3c134.15,-74.04 275.94,-152.24 414.98,-228.53 361.6,-198.73 702.61,-385.09 861.5,-471.92 252.44,-366.83 764.62,-771.77 1134.44,-771.77 591.13,0 388.08,849.72 388.08,849.72 0,0 12.04,-38.94 28.06,-39.27 16.85,-0.5 81.94,-111.9 264.4,-45.41 187.69,68.9 145.02,200.64 146.18,214.09 2.24,26.15 -221.73,781.48 -314.78,1266.02 -44.58,231.19 -18.76,399.62 -5.65,399.62 18.35,0 55.79,-58.77 90.49,-121.95l-0.75 -1.91c0,0 26.15,-47.89 69.98,-133.89l8.55 -18.02 0.41 0.83c51.64,-101.02 124.11,-249.53 207.87,-433.65 164.11,-361.77 790.35,-1758.45 843.48,-1912.93 53.05,-154.49 80.77,-314.29 106.92,-382.77 25.82,-68.4 247.21,-120.04 505.88,-118.21 258.75,1.91 284.98,112.23 286.8,135.06 1.83,22.83 -123.02,329.31 -151.83,545.89 -28.39,216.58 -1.07,324.66 22.5,506.54 15.36,118.95 89.74,269.79 177.65,440.71 267.71,-437.72 738.72,-1275.07 784.05,-1509.66 30.96,-160.46 80.68,-314.2 106.92,-382.68 26.14,-68.49 247.21,-120.12 505.87,-118.21 258.75,1.82 284.9,112.23 286.72,135.06 1.91,22.83 -123.35,329.22 -151.74,545.88 -28.47,216.25 -1.08,324.75 22.41,506.54 20.26,155.65 140.62,364.76 259.91,602.67 325.66,-160.54 708.93,-268.21 1157.61,-270.45 185.78,-1.08 401.61,17.6 513.01,52.3l0 -3579.24c0,-252.6 -129.42,-485.28 -348.15,-611.3l-5838.82 -3374.77c-218.32,-126.09 -485.71,-126.09 -704.03,0l-5822.8 3373.11c-218.32,126.1 -335.03,359.2 -335.03,611.39l0 6752.37c0,252.1 117.38,485.2 335.37,611.3l5832.17 3375.76c218.33,126.52 483.05,126.52 701.37,0l5834.84 -3375.76c218.32,-126.51 345.5,-359.2 345.5,-611.3l0 -2728.94c-74.05,-21.75 -182.55,-38.94 -287.97,-51.22zm-6281.61 -353.63c-125.18,140.29 -338.69,502.05 -438.55,804.8 -198.57,601.17 -112.57,1212.14 28.06,1248.83 164.11,43 433.4,-760.55 562.24,-1074.92 80.85,-196.82 394.97,-1070.36 326.15,-1187.07 -53.79,-91.23 -276.35,-17.6 -477.9,208.36zm2271.54 2026.32c0,0 -39.59,37.44 -22.49,47.9 23.24,13.86 73.38,-4.15 127.92,-32.62 154.48,-97.13 501.06,-339.61 501.81,-698.47 0,-10.46 -0.42,-20.5 -1.17,-31.38 -80.35,105.51 -154.4,199.4 -218.32,279.09 -109.16,135.81 -387.75,435.48 -387.75,435.48z"/>
    </g>
   </g>
   <polygon class="fil2" points="3910.92,22317.6 16960.08,22317.6 16960.08,7382.4 3910.92,7382.4 "/>
  </g>
 </g>
</svg>
